<mxfile host="app.diagrams.net" modified="2024-04-13T16:27:42.918Z" agent="Mozilla/5.0 (Windows NT 10.0; Win64; x64) AppleWebKit/537.36 (KHTML, like Gecko) Chrome/123.0.0.0 Safari/537.36" etag="-5QOVYoaCErskl0o67xY" version="24.2.5" type="device">
  <diagram name="Page-1" id="pozJObWsiXrhvlRPEjMI">
    <mxGraphModel dx="1114" dy="566" grid="1" gridSize="10" guides="1" tooltips="1" connect="1" arrows="1" fold="1" page="1" pageScale="1" pageWidth="850" pageHeight="1100" math="0" shadow="0">
      <root>
        <mxCell id="0" />
        <mxCell id="1" parent="0" />
        <mxCell id="3iI-mje0Hntfk6M0mQ8U-1" value="" style="rounded=0;whiteSpace=wrap;html=1;" vertex="1" parent="1">
          <mxGeometry x="40" y="40" width="720" height="400" as="geometry" />
        </mxCell>
        <mxCell id="3iI-mje0Hntfk6M0mQ8U-2" value="" style="rounded=0;whiteSpace=wrap;html=1;" vertex="1" parent="1">
          <mxGeometry x="40" y="330" width="720" height="110" as="geometry" />
        </mxCell>
        <mxCell id="3iI-mje0Hntfk6M0mQ8U-3" value="main" style="rounded=0;whiteSpace=wrap;html=1;" vertex="1" parent="1">
          <mxGeometry x="40" y="40" width="720" height="290" as="geometry" />
        </mxCell>
        <mxCell id="3iI-mje0Hntfk6M0mQ8U-5" value="@miguel paganini&lt;div&gt;%$miguelbpaganini@hotmail.com&lt;/div&gt;&lt;div&gt;%$+55 (27) 99794-5951&lt;/div&gt;" style="rounded=0;whiteSpace=wrap;html=1;" vertex="1" parent="1">
          <mxGeometry x="40" y="330" width="220" height="110" as="geometry" />
        </mxCell>
        <mxCell id="3iI-mje0Hntfk6M0mQ8U-6" value="" style="rounded=0;whiteSpace=wrap;html=1;movable=0;resizable=0;rotatable=0;deletable=0;editable=0;locked=1;connectable=0;" vertex="1" parent="1">
          <mxGeometry x="540" y="330" width="220" height="110" as="geometry" />
        </mxCell>
        <mxCell id="3iI-mje0Hntfk6M0mQ8U-10" value="" style="group" vertex="1" connectable="0" parent="1">
          <mxGeometry x="580" y="360" width="140" height="40" as="geometry" />
        </mxCell>
        <mxCell id="3iI-mje0Hntfk6M0mQ8U-7" value="i" style="ellipse;whiteSpace=wrap;html=1;aspect=fixed;" vertex="1" parent="3iI-mje0Hntfk6M0mQ8U-10">
          <mxGeometry width="40" height="40" as="geometry" />
        </mxCell>
        <mxCell id="3iI-mje0Hntfk6M0mQ8U-8" value="l" style="ellipse;whiteSpace=wrap;html=1;aspect=fixed;" vertex="1" parent="3iI-mje0Hntfk6M0mQ8U-10">
          <mxGeometry x="100" width="40" height="40" as="geometry" />
        </mxCell>
        <mxCell id="3iI-mje0Hntfk6M0mQ8U-9" value="g" style="ellipse;whiteSpace=wrap;html=1;aspect=fixed;" vertex="1" parent="3iI-mje0Hntfk6M0mQ8U-10">
          <mxGeometry x="50" width="40" height="40" as="geometry" />
        </mxCell>
      </root>
    </mxGraphModel>
  </diagram>
</mxfile>
